<?xml version="1.0" encoding="utf-8"?>
<!-- Generator: Adobe Illustrator 23.0.2, SVG Export Plug-In . SVG Version: 6.00 Build 0)  -->
<svg version="1.1" id="Layer_1" xmlns="http://www.w3.org/2000/svg" xmlns:xlink="http://www.w3.org/1999/xlink" x="0px" y="0px"
	 viewBox="0 0 1000 1000" style="enable-background:new 0 0 1000 1000;" xml:space="preserve">
<style type="text/css">
	.st0{display:none;fill:none;stroke:#809BCE;stroke-width:0.25;stroke-miterlimit:10;}
	.st1{fill:#73CDEF;}
</style>
<line class="st0" x1="423.29" y1="506.88" x2="423.29" y2="527.48"/>
<polyline class="st0" points="428.5,506.41 423.29,511.35 418.01,516.35 414.99,519.21 409.71,524.22 406.69,527.08 401.41,532.08 
	394.71,538.43 "/>
<line class="st0" x1="401.41" y1="540.38" x2="401.41" y2="524.32"/>
<line class="st0" x1="414.99" y1="537.21" x2="414.99" y2="510.74"/>
<line class="st0" x1="409.71" y1="537.21" x2="409.71" y2="510.74"/>
<g>
	<g>
		<path class="st1" d="M376.65,560.6v4.47h-13.76v5.76h11.78v4.47h-11.78v10.52h-4.83V560.6H376.65z"/>
		<path class="st1" d="M391.1,560.6v20.75h12.72v4.47h-17.54V560.6H391.1z"/>
		<path class="st1" d="M434.08,563.85c2.52,2.49,3.78,5.62,3.78,9.37s-1.26,6.88-3.78,9.4c-2.49,2.48-5.62,3.75-9.4,3.75
			c-3.75,0-6.88-1.26-9.4-3.75c-2.48-2.52-3.75-5.66-3.75-9.4s1.26-6.88,3.75-9.37c2.52-2.52,5.66-3.78,9.4-3.78
			C428.46,560.06,431.59,561.33,434.08,563.85z M418.88,579.26c1.55,1.62,3.49,2.41,5.8,2.41c2.34,0,4.25-0.79,5.8-2.41
			c1.55-1.62,2.34-3.64,2.34-6.05c0-2.41-0.79-4.43-2.34-6.05c-1.55-1.62-3.46-2.45-5.8-2.45c-2.31,0-4.25,0.83-5.8,2.45
			c-1.55,1.62-2.31,3.64-2.31,6.05C416.57,575.63,417.33,577.64,418.88,579.26z"/>
		<path class="st1" d="M469.71,563.85c2.52,2.49,3.78,5.62,3.78,9.37s-1.26,6.88-3.78,9.4c-2.49,2.48-5.62,3.75-9.4,3.75
			c-3.75,0-6.88-1.26-9.4-3.75c-2.48-2.52-3.75-5.66-3.75-9.4s1.26-6.88,3.75-9.37c2.52-2.52,5.66-3.78,9.4-3.78
			C464.1,560.06,467.23,561.33,469.71,563.85z M454.51,579.26c1.55,1.62,3.49,2.41,5.8,2.41c2.34,0,4.25-0.79,5.8-2.41
			c1.55-1.62,2.34-3.64,2.34-6.05c0-2.41-0.79-4.43-2.34-6.05c-1.55-1.62-3.46-2.45-5.8-2.45c-2.31,0-4.25,0.83-5.8,2.45
			c-1.55,1.62-2.31,3.64-2.31,6.05C452.21,575.63,452.96,577.64,454.51,579.26z"/>
		<path class="st1" d="M495.15,560.6c2.48,0,4.54,0.79,6.2,2.34c1.69,1.55,2.52,3.49,2.52,5.8c0,3.28-1.87,6.05-4.79,7.35l5.76,9.73
			h-5.37l-5.3-8.9h-5.87v8.9h-4.83V560.6H495.15z M488.31,565.07v7.38h6.84c2.13,0,3.67-1.58,3.67-3.71c0-2.13-1.55-3.67-3.67-3.67
			H488.31z"/>
		<path class="st1" d="M514.29,585.82V560.6h10.23c3.75,0,6.88,1.23,9.37,3.64c2.52,2.41,3.78,5.4,3.78,8.97
			c0,3.57-1.26,6.56-3.78,8.97c-2.49,2.41-5.62,3.64-9.37,3.64H514.29z M519.12,565.07v16.28h5.4c2.31,0,4.25-0.79,5.8-2.34
			c1.55-1.58,2.34-3.53,2.34-5.8c0-2.31-0.79-4.25-2.34-5.8c-1.55-1.55-3.49-2.34-5.8-2.34H519.12z"/>
		<path class="st1" d="M559.33,560.6c2.48,0,4.54,0.79,6.2,2.34c1.69,1.55,2.52,3.49,2.52,5.8c0,3.28-1.87,6.05-4.79,7.35l5.76,9.73
			h-5.37l-5.29-8.9h-5.87v8.9h-4.83V560.6H559.33z M552.48,565.07v7.38h6.84c2.12,0,3.67-1.58,3.67-3.71c0-2.13-1.55-3.67-3.67-3.67
			H552.48z"/>
		<path class="st1" d="M576.7,585.82l10.81-25.22h3.93l10.81,25.22h-5.08l-1.98-4.75h-11.42l-1.98,4.75H576.7z M589.48,567.48
			l-3.85,9.15h7.67L589.48,567.48z"/>
		<path class="st1" d="M614.92,585.82l-8.54-25.22h4.97l5.51,17.47l5.33-17.47h3.96l5.37,17.47l5.48-17.47h4.94l-8.54,25.22h-3.93
			l-5.3-16.86l-5.29,16.86H614.92z"/>
	</g>
	<g>
		<g>
			<g>
				<path class="st1" d="M520.02,498.15L520.02,498.15c3.52,0,6.37-2.85,6.37-6.37v-34.93l-12.74-12.07v46.99
					C513.65,495.3,516.5,498.15,520.02,498.15z"/>
			</g>
			<g>
				<path class="st1" d="M493.63,420.31v71.48c0,3.5,2.87,6.35,6.37,6.35c3.52,0,6.37-2.85,6.37-6.35V432.4L493.63,420.31z"/>
			</g>
			<g>
				<path class="st1" d="M486.34,451.37v40.42c0,3.5-2.85,6.35-6.37,6.35c-3.52,0-6.37-2.85-6.37-6.35v-28.36L486.34,451.37z"/>
			</g>
			<g>
				<g>
					<path class="st1" d="M521.49,504.09l-10.81,21.53c-3.34-1.91-7.2-3-11.32-3c-3.72,0-7.23,0.89-10.33,2.47l-10.54-21
						c0.3,0.03,0.62,0.04,0.93,0.04c3.47,0,6.62-1.43,8.9-3.73h2.79c2.27,2.3,5.42,3.73,8.89,3.73c3.48,0,6.62-1.43,8.89-3.73h2.79
						c2.27,2.3,5.42,3.73,8.89,3.73C520.87,504.13,521.18,504.12,521.49,504.09z"/>
				</g>
				<g>
					<path class="st1" d="M499.99,546.93l-7.96-15.87c2.3-0.78,4.77-1.2,7.34-1.2c2.97,0,5.8,0.57,8.39,1.6L499.99,546.93z"/>
				</g>
			</g>
			<g>
				<rect x="473.3" y="444.92" class="st1" width="0.6" height="53.24"/>
			</g>
			<g>
				<rect x="526.09" y="444.13" class="st1" width="0.6" height="54.02"/>
			</g>
			<g>
				
					<rect x="460.87" y="458.81" transform="matrix(0.7263 -0.6874 0.6874 0.7263 -184.7056 454.3318)" class="st1" width="34.6" height="0.6"/>
			</g>
			<g>
				<rect x="486.04" y="433.65" class="st1" width="0.6" height="64.49"/>
			</g>
			<g>
				<rect x="513.35" y="431.03" class="st1" width="0.6" height="67.11"/>
			</g>
			<g>
				<rect x="506.07" y="423.58" class="st1" width="0.6" height="74.57"/>
			</g>
			<g>
				<rect x="493.33" y="413.64" class="st1" width="0.6" height="84.5"/>
			</g>
			<g>
				
					<rect x="522.19" y="436.78" transform="matrix(0.6878 -0.7259 0.7259 0.6878 -165.8311 520.7689)" class="st1" width="0.6" height="32.77"/>
			</g>
			<g>
				<polygon class="st1" points="508.82,435.18 487.24,414.66 487.65,414.22 509.24,434.74 				"/>
			</g>
		</g>
	</g>
</g>
</svg>
